Coordinates
version=1
nRows=24
nColumns=19
inDegrees=yes

Units are S.I. units (second, meters, Newtons, ...)
If the header above contains a line with 'inDegrees', this indicates whether rotational values are in degrees (yes) or radians (no).

endheader
time	pelvis_tilt	pelvis_list	pelvis_rotation	pelvis_tx	pelvis_ty	pelvis_tz	hip_flexion_r	hip_adduction_r	hip_rotation_r	knee_angle_r	knee_angle_r_beta	ankle_angle_r	hip_flexion_l	hip_adduction_l	hip_rotation_l	knee_angle_l	knee_angle_l_beta	ankle_angle_l
     15.48666667	     -3.88622741	     -9.17579627	     -4.28812185	      2.09540774	      0.97236954	      1.02326939	     26.97079493	     15.73041002	     -7.02655182	      6.21567113	      0.10848393	     -5.03750871	    -14.77784175	    -10.62302920	    -16.51936039	     72.33023556	      1.26240076	    -13.75488939
     15.49333333	     -3.58591465	    -10.02073025	     -5.38805205	      2.09365440	      0.96844711	      1.02410734	     26.88835673	     16.71061570	     -8.24389796	      9.32777732	      0.16280043	     -4.70542132	    -13.58755832	    -11.75200930	    -17.42813089	     76.77255145	      1.33993380	    -12.90796986
     15.50000000	     -3.72450594	    -10.71576017	     -6.59114556	      2.09168126	      0.96377627	      1.02502846	     27.49149687	     17.44177709	     -9.50260192	     13.18164311	      0.23006307	     -3.98391168	    -11.79991823	    -12.78179961	    -18.14490817	     81.21658874	      1.41749688	    -12.00269201
     15.50666667	     -3.78250596	    -11.39755388	     -7.77145849	      2.08961268	      0.95905395	      1.02589889	     27.99382535	     18.06499914	    -10.57267930	     17.27263539	      0.30146436	     -2.94120599	    -10.05252478	    -13.87341998	    -18.75177853	     85.51065684	      1.49244251	    -10.89702946
     15.51333333	     -3.93754137	    -11.97615488	     -8.93543241	      2.08743698	      0.95419833	      1.02674557	     28.55400218	     18.54724905	    -11.36025065	     21.47701321	      0.37484459	     -1.60982152	     -8.09148937	    -14.93332808	    -19.15846665	     89.65870398	      1.56483959	     -9.65780298
     15.52000000	     -4.12938931	    -12.44156724	    -10.04991344	      2.08514000	      0.94941050	      1.02757089	     29.04917408	     18.91717321	    -11.82135577	     25.62421210	      0.44722687	      0.04910831	     -5.94844667	    -15.94551224	    -19.32784108	     93.63385361	      1.63421904	     -8.28329398
     15.52666667	     -4.40013014	    -12.75928681	    -11.07029653	      2.08272463	      0.94478990	      1.02836336	     29.50834652	     19.17451388	    -11.96505021	     29.60918548	      0.51677778	      1.97729147	     -3.52560725	    -16.88673957	    -19.20334237	     97.39581176	      1.69987759	     -6.83036829
     15.53333333	     -4.70660316	    -12.92490086	    -12.01992230	      2.08009674	      0.94046392	      1.02916201	     29.84549534	     19.34132009	    -11.80417252	     33.31405346	      0.58143992	      4.10061021	     -0.85429883	    -17.71533544	    -18.81382984	    100.92042860	      1.76139376	     -5.33167247
     15.54000000	     -5.04039170	    -12.93542884	    -12.85264480	      2.07727526	      0.93654083	      1.02988751	     30.02513049	     19.41688152	    -11.36857459	     36.65298414	      0.63971525	      6.39898174	      2.09096710	    -18.41379932	    -18.13224151	    104.18290146	      1.81833465	     -3.82246644
     15.54666667	     -5.36854579	    -12.81020985	    -13.58046285	      2.07431157	      0.93316002	      1.03053656	     29.97428811	     19.40654625	    -10.70591969	     39.55957002	      0.69044475	      8.78401819	      5.24964655	    -18.98905672	    -17.22311890	    107.11967261	      1.86959098	     -2.34009047
     15.55333333	     -5.73664758	    -12.54682887	    -14.18392056	      2.07119154	      0.93025906	      1.03104676	     29.74001703	     19.28636505	     -9.88998224	     42.00674328	      0.73315598	     11.17634360	      8.70496914	    -19.37888521	    -16.04632989	    109.73232355	      1.91519034	     -0.95250060
     15.56000000	     -5.20673922	    -12.57831542	    -14.63976491	      2.06829913	      0.92914864	      1.03146353	     28.06461202	     19.35790004	     -8.76029868	     43.72569851	      0.76315741	     13.58918870	     11.06956321	    -19.96582642	    -14.98303590	    111.77431592	      1.95082983	     -0.04459102
     15.56666667	     -6.29919207	    -11.80424023	    -14.98526364	      2.06494868	      0.92630497	      1.03160058	     28.29084261	     18.78506507	     -7.91639116	     45.37517775	      0.79194625	     15.77178701	     15.90517375	    -19.76484377	    -13.24957526	    113.79391747	      1.98607853	      1.47671460
     15.57333333	     -6.24047687	    -11.45640355	    -15.15159049	      2.06213270	      0.92558753	      1.03164040	     26.74928620	     18.43008348	     -6.83880855	     46.25810516	      0.80735624	     17.85359457	     19.20764544	    -19.80402943	    -11.76081104	    115.15502380	      2.00983432	      2.60948615
     15.58000000	     -6.21055152	    -11.07004192	    -15.21383924	      2.05961819	      0.92541332	      1.03161614	     24.96887250	     17.97806823	     -5.78571121	     46.64807726	      0.81416254	     19.69877153	     22.55540434	    -19.72183941	    -10.25980859	    116.07747972	      2.02593421	      3.48260394
     15.58666667	     -6.06171105	    -10.68395720	    -15.16760449	      2.05753294	      0.92594807	      1.03162288	     22.79926850	     17.46582038	     -4.69705422	     46.56766248	      0.81275904	     21.26153904	     25.69035420	    -19.54648425	     -8.82544487	    116.53125043	      2.03385400	      4.18272438
     15.59333333	     -5.79201003	    -10.19200183	    -15.23108474	      2.05587347	      0.92727667	      1.03186563	     20.27008435	     16.86973188	     -3.31178674	     46.09984449	      0.80459407	     22.42161995	     28.45473969	    -19.26411424	     -7.78666895	    116.48565604	      2.03305823	      4.72196957
     15.60000000	     -5.33296722	     -9.93682258	    -14.72491820	      2.05508676	      0.92923791	      1.03168105	     17.28649541	     16.17244530	     -2.69244291	     45.10603885	      0.78724889	     23.28580472	     31.01160229	    -18.92657387	     -6.35141454	    116.07584867	      2.02590574	      5.46944078
     15.60666667	     -5.26852670	     -9.26845376	    -14.68227664	      2.05445783	      0.93131404	      1.03220342	     14.70581051	     15.34387459	     -1.42100926	     44.02432102	      0.76836935	     23.56029849	     33.66638056	    -18.43587753	     -5.64316805	    115.21111896	      2.01081336	      5.95221001
     15.61333333	     -3.71370424	     -9.13638678	    -13.90141259	      2.05500674	      0.93577392	      1.03213694	     10.06697934	     14.48825022	     -0.80177422	     42.10223761	      0.73482267	     23.50883237	     34.40436189	    -17.90829827	     -4.71988183	    113.83904463	      1.98686615	      6.68915308
     15.62000000	     -2.88063654	     -8.57162862	    -13.38769384	      2.05578111	      0.93980611	      1.03249772	      6.29662481	     13.43567782	     -0.01880216	     40.16789804	      0.70106207	     22.82686172	     35.72936964	    -17.16727042	     -4.22263342	    112.13090304	      1.95705345	      7.28227765
     15.62666667	     -2.10365547	     -7.85565285	    -12.82740205	      2.05705034	      0.94418013	      1.03289881	      2.56162500	     12.22464279	      0.59935991	     38.01947164	      0.66356496	     21.57117604	     36.87665833	    -16.24545855	     -3.94835364	    110.06667321	      1.92102584	      7.87694772
     15.63333333	     -1.41130988	     -6.98935144	    -12.24211774	      2.05876660	      0.94882531	      1.03333291	     -1.08788664	     10.88274405	      1.05392214	     35.68610242	      0.62283998	     19.74158702	     37.87575887	    -15.15632417	     -3.87743277	    107.66811448	      1.87916310	      8.43096318
     15.64000000	     -1.03567571	     -5.96051220	    -11.54637761	      2.06082649	      0.95334196	      1.03356442	     -4.33128378	      9.44750462	      1.14909693	     33.26754584	      0.58062821	     17.30549702	     39.07001102	    -13.80213075	     -3.82566579	    104.99558209	      1.83251861	      8.85179717
